<svg height="512pt" viewBox="0 0 512 512.00025" width="512pt" xmlns="http://www.w3.org/2000/svg"><path d="m492.480469 174.382812-104.578125-149.59375c-3.839844-5.304687-10.605469-7.515624-16.816406-5.496093-6.195313 2.023437-10.386719 7.808593-10.355469 14.328125l.25 54.125c-.03125.851562-.132813 3.441406-3.429688 5.199218-2.488281 1.320313-6.78125 2.007813-9.125.660157l-43.417969-35.332031c-.675781-.613282-1.714843-1.554688.496094-5.742188 2.683594-5.066406 5.128906-10.269531 8.015625-16.421875l4.246094-8.976563c2.066406-4.324218 1.949219-9.363281-.320313-13.566406-2.257812-4.21875-6.402343-7.101562-11.132812-7.761718l-17.140625-2.476563c-41.703125-6.125-49.160156-6.371094-67.910156 22.03125-4.410157 6.707031-10.253907 15.601563-19.351563 27.199219-.949218 1.21875-2.109375 1.570312-2.898437 1.65625-.980469.089844-2.152344-.042969-3.398438-1.128906-22.472656-19.011719-36.605469-18.601563-58.316406 1.671874l-102.332031 100.390626c-34.117188 26.441406-43.125 56.824218-27.640625 92.609374l34.070312 78.457032v.015625c6.488281 15.773437 19.582031 27.699219 35.917969 32.695312 16.316406 4.964844 33.835938 2.429688 48.015625-7.03125l60.46875-40.242187c10.035156-6.617188 25.664063-14.265625 43.199219-13.695313 16.171875.601563 28.742187 5.976563 38.453125 16.4375l8.992187 9.726563c13.054688 14.136718 26.117188 28.285156 39.945313 41.617187 17.433593 16.800781 41.019531 26.261719 65.1875 26.261719 1.097656 0 2.183593-.015625 3.28125-.058594 23.496093-.835937 44.605469-10.386718 59.457031-26.894531 26.234375-29.179687 46.660156-61.332031 58.730469-95.550781 13.039062-36.988282 13.476562-56.792969-10.5625-95.113282zm0 0"/><path d="m434.191406 422h-86.453125c-4.515625 0-8.804687 2.035156-11.648437 5.550781-2.839844 3.503907-3.96875 8.101563-3.03125 12.527344 6.066406 28.914063 26.484375 71.921875 57.90625 71.921875 31.417968 0 51.839844-43.007812 57.902344-71.921875.9375-4.425781-.1875-9.023437-3.03125-12.527344-2.839844-3.515625-7.132813-5.550781-11.644532-5.550781zm0 0"/></svg>