<svg id="delivery-motorbike" xmlns="http://www.w3.org/2000/svg" width="25.362" height="19.898" viewBox="0 0 25.362 19.898">
  <path id="Path" d="M6.879,0H4.172V1.093a.251.251,0,0,1-.254.248H3.329a.251.251,0,0,1-.254-.248V0H.368A.363.363,0,0,0,0,.358V5.983a.363.363,0,0,0,.368.358H6.879a.363.363,0,0,0,.367-.358V.358A.363.363,0,0,0,6.879,0Z" transform="translate(16.304)" fill="#bc2c3d"/>
  <g id="Group" transform="translate(0 1.835)">
    <g id="Group-2" data-name="Group" transform="translate(0 12.048)">
      <path id="Shape" d="M0,3.008A3,3,0,1,1,3,6.015,3.005,3.005,0,0,1,0,3.008Z" transform="translate(16.614 0)" fill="#bc2c3d"/>
      <path id="Shape-2" data-name="Shape" d="M0,3.008A3,3,0,1,1,3,6.015,3.005,3.005,0,0,1,0,3.008Z" transform="translate(0 0)" fill="#bc2c3d"/>
    </g>
    <path id="Path-2" data-name="Path" d="M20.294,9.169V8.345h2.088a.857.857,0,0,0,.856-.859V6.875a.857.857,0,0,0-.856-.859H11.915a.857.857,0,0,0-.856.859V7.5a.857.857,0,0,0,.856.859h1.157v3.3h-5.8A5.808,5.808,0,0,0,5.64,9.976L7.921,1.718h2.108a.859.859,0,0,0,0-1.718h-3A1.1,1.1,0,0,0,6.65.09a.857.857,0,0,0-.331.292L.249,9.518a1.071,1.071,0,0,0-.214.9.921.921,0,0,0,1.217.463,3.849,3.849,0,0,1,1.177-.175A4.054,4.054,0,0,1,6.47,14.764a.857.857,0,0,0,.855.859h6.641a.857.857,0,0,0,.856-.859,4.042,4.042,0,1,1,8.083,0,.856.856,0,1,0,1.711,0A5.782,5.782,0,0,0,20.294,9.169Z" transform="translate(0.747 0)" fill="#bc2c3d"/>
  </g>
</svg>
