<?xml version="1.0" encoding="iso-8859-1"?>
<!-- Generator: Adobe Illustrator 19.0.0, SVG Export Plug-In . SVG Version: 6.00 Build 0)  -->
<svg version="1.1" id="Capa_1" xmlns="http://www.w3.org/2000/svg" xmlns:xlink="http://www.w3.org/1999/xlink" x="0px" y="0px"
	 viewBox="0 0 512.002 512.002" style="enable-background:new 0 0 512.002 512.002;" xml:space="preserve">
<g>
	<g>
		<path d="M90.439,188.284c7.673,84.601,78.997,151.103,165.562,151.103s157.89-66.502,165.562-151.103H90.439z"/>
	</g>
</g>
<g>
	<g>
		<path d="M370.557,494.007l-27.7-144.602c-9.17,4.537-18.736,8.39-28.64,11.468l7.785,40.637H189.991l7.781-40.641
			c-9.906-3.079-19.472-6.933-28.641-11.47l-27.685,144.609c-1.573,8.214,3.811,16.148,12.026,17.721
			c0.962,0.185,1.919,0.274,2.864,0.274c7.12,0,13.468-5.047,14.857-12.3l13-67.906h143.611l13.008,67.908
			c1.389,7.252,7.735,12.298,14.856,12.298c0.945,0,1.904-0.089,2.866-0.274C366.747,510.155,372.13,502.222,370.557,494.007z"/>
	</g>
</g>
<g>
	<g>
		<path d="M197.866,78.199c3.552-3.652,12.139-13.667,15.169-27.756c2.502-11.635,1.862-29.075-15.394-46.085
			c-5.955-5.871-15.544-5.803-21.415,0.154c-5.871,5.955-5.802,15.544,0.154,21.415c8.096,7.981,7.898,14.179,7.045,18.149
			c-1.454,6.758-6.312,12.019-7.271,13.005c-3.552,3.653-12.139,13.667-15.168,27.756c-2.502,11.635-1.862,29.076,15.393,46.085
			c2.951,2.908,6.791,4.358,10.631,4.358c3.912,0,7.822-1.506,10.784-4.512c5.872-5.956,5.802-15.544-0.153-21.416
			c-8.097-7.981-7.898-14.179-7.045-18.149C192.05,84.447,196.907,79.186,197.866,78.199z"/>
	</g>
</g>
<g>
	<g>
		<path d="M266.856,78.199c3.552-3.652,12.139-13.667,15.169-27.756c2.502-11.635,1.862-29.075-15.394-46.085
			c-5.955-5.871-15.543-5.803-21.415,0.154c-5.871,5.955-5.802,15.544,0.154,21.415c8.097,7.981,7.899,14.179,7.045,18.149
			c-1.453,6.758-6.311,12.019-7.27,13.005c-3.552,3.653-12.139,13.667-15.168,27.756c-2.502,11.635-1.862,29.076,15.393,46.085
			c2.951,2.908,6.791,4.358,10.631,4.358c3.911,0,7.822-1.506,10.783-4.512c5.872-5.956,5.803-15.544-0.153-21.416
			c-8.097-7.981-7.898-14.179-7.045-18.149C261.04,84.447,265.897,79.186,266.856,78.199z"/>
	</g>
</g>
<g>
	<g>
		<path d="M335.847,78.199c3.552-3.652,12.139-13.667,15.169-27.756c2.502-11.635,1.862-29.075-15.394-46.085
			c-5.954-5.871-15.544-5.803-21.415,0.154c-5.871,5.955-5.802,15.544,0.154,21.415c8.096,7.981,7.898,14.179,7.045,18.149
			c-1.454,6.758-6.312,12.019-7.271,13.005c-3.552,3.653-12.139,13.667-15.168,27.756c-2.502,11.635-1.862,29.076,15.393,46.085
			c2.951,2.908,6.791,4.358,10.631,4.358c3.911,0,7.822-1.506,10.784-4.512c5.872-5.956,5.802-15.544-0.154-21.416
			c-8.097-7.981-7.898-14.179-7.045-18.149C330.031,84.447,334.888,79.186,335.847,78.199z"/>
	</g>
</g>
<g>
</g>
<g>
</g>
<g>
</g>
<g>
</g>
<g>
</g>
<g>
</g>
<g>
</g>
<g>
</g>
<g>
</g>
<g>
</g>
<g>
</g>
<g>
</g>
<g>
</g>
<g>
</g>
<g>
</g>
</svg>
