<svg xmlns="http://www.w3.org/2000/svg" width="24" height="24" viewBox="0 0 24 24">
  <g id="watch-icon" transform="translate(-0.297 -0.065)">
    <path id="Shape" d="M0,12A12,12,0,0,1,12,0a.706.706,0,1,1,0,1.411,10.589,10.589,0,0,0,0,21.177A.706.706,0,1,1,12,24,12,12,0,0,1,0,12ZM14.241,23.092a.706.706,0,1,1,.682.523A.707.707,0,0,1,14.241,23.092Zm2.795-.958a.707.707,0,1,1,.612.353A.706.706,0,0,1,17.036,22.134Zm2.452-1.649a.7.7,0,1,1,.5.207A.7.7,0,0,1,19.487,20.485Zm1.941-2.226a.707.707,0,1,1,.352.094A.706.706,0,0,1,21.428,18.259Zm1.3-2.653a.706.706,0,1,1,.183.024A.707.707,0,0,1,22.726,15.605ZM11.294,13.412a.707.707,0,0,1-.706-.706V4.235a.706.706,0,1,1,1.411,0V12h5.648a.706.706,0,1,1,0,1.412ZM22.589,12a.706.706,0,1,1,.705.706A.705.705,0,0,1,22.589,12Zm-.361-2.74a.706.706,0,1,1,.682.523A.707.707,0,0,1,22.227,9.26ZM21.17,6.706a.706.706,0,1,1,.612.353A.706.706,0,0,1,21.17,6.706ZM19.487,4.513a.7.7,0,1,1,.5.207A.7.7,0,0,1,19.487,4.513ZM17.294,2.83a.707.707,0,1,1,.352.094A.706.706,0,0,1,17.294,2.83ZM14.74,1.773a.706.706,0,1,1,.183.024A.707.707,0,0,1,14.74,1.773Z" transform="translate(0.297 0.065)" fill="#bc2c3d"/>
  </g>
</svg>
